# File created by Blade
# Date/Time:  Wed Jan 21 17:16:23 2015
# Frame Rate: 120.000 fps
#------------------------------------------------------
:FULLY-SPECIFIED
:DEGREES
879
root 21.948684 5.478739 -14.527201 -191.396923 -37.468087 -225.322791
Spine 49.966505 -5.172342 -39.660757
Head 32.143609 8.831241 -4.683573
LeftShoulder 9.808579 -26.662052 -9.310043
LeftArm 25.405761 41.314120 -40.713399
LeftForeArm 16.176588 -0.000000 36.793309
LeftHand 0.842688 -0.000000 -11.833817
LeftHandThumb1 -26.253704 0.000000 33.147579
RightShoulder -0.940386 -23.345905 -5.509869
RightArm 3.304869 -22.505085 71.325049
RightForeArm -41.435546 -0.000000 61.070232
RightHand -8.137436 0.000000 -18.183014
RightHandThumb1 -24.326973 -0.000000 -32.862282
LeftUpLeg 4.034583 8.982681 25.319854
LeftLeg 147.914949 -0.000000 -0.000000
LeftFoot 48.173745 11.305117 23.857574
LeftToeBase 24.088778 -0.000000 -0.000000
RightUpLeg -110.225022 -26.869307 35.346964
RightLeg 133.111179 -0.000000 -0.000000
RightFoot 25.331260 -17.937115 19.329216
RightToeBase 40.767254 -0.000000 -0.000000
880
root 21.980191 5.470163 -14.468920 -191.594364 -37.447623 -225.343204
Spine 50.332766 -5.340991 -39.666562
Head 31.751192 9.061417 -4.830107
LeftShoulder 9.805417 -26.674201 -9.307838
LeftArm 25.276833 40.901134 -40.803714
LeftForeArm 16.389485 -0.000000 37.411879
LeftHand 0.954750 -0.000000 -11.984768
LeftHandThumb1 -26.253704 0.000000 33.147579
RightShoulder -1.056037 -23.382167 -5.704717
RightArm 3.629047 -22.390433 71.282538
RightForeArm -41.542960 -0.000000 61.636331
RightHand -8.249804 -0.000000 -18.010978
RightHandThumb1 -24.326973 -0.000000 -32.862282
LeftUpLeg 4.066878 9.028626 25.254219
LeftLeg 148.059867 -0.000000 -0.000000
LeftFoot 48.367497 11.055690 23.947548
LeftToeBase 24.145507 -0.000000 -0.000000
RightUpLeg -110.459826 -26.477013 35.174512
RightLeg 133.493877 -0.000000 -0.000000
RightFoot 25.619177 -18.313040 19.139681
RightToeBase 41.022618 -0.000000 -0.000000
881
root 22.004862 5.466131 -14.418536 -191.800870 -37.410779 -225.381475
Spine 50.710965 -5.507927 -39.750581
Head 31.382359 9.350645 -4.943113
LeftShoulder 9.772677 -26.835578 -9.204398
LeftArm 24.886219 40.751796 -41.145833
LeftForeArm 16.151999 0.000000 38.162208
LeftHand 0.892111 -0.000000 -11.917882
LeftHandThumb1 -26.253704 0.000000 33.147579
RightShoulder -1.212509 -23.300017 -5.889107
RightArm 3.892410 -22.302012 71.281429
RightForeArm -41.791580 -0.000000 62.118317
RightHand -8.210268 0.000000 -17.528622
RightHandThumb1 -24.326973 -0.000000 -32.862282
LeftUpLeg 4.157488 9.095358 25.186844
LeftLeg 148.176595 -0.000000 -0.000000
LeftFoot 48.425957 10.893018 23.947766
LeftToeBase 23.982309 -0.000000 -0.000000
RightUpLeg -110.753204 -26.104908 35.034591
RightLeg 133.953679 -0.000000 -0.000000
RightFoot 26.196323 -18.570489 18.839292
RightToeBase 41.234273 -0.000000 -0.000000
882
root 22.037083 5.460554 -14.372770 -192.065366 -37.338198 -225.220532
Spine 51.069522 -5.764733 -39.718180
Head 31.091572 9.733624 -5.047507
LeftShoulder 9.687114 -26.845386 -9.159819
LeftArm 24.676292 40.603318 -41.210672
LeftForeArm 15.845882 0.000000 38.981108
LeftHand 1.092851 -0.000000 -12.098396
LeftHandThumb1 -26.253704 0.000000 33.147579
RightShoulder -1.297429 -23.117973 -6.046876
RightArm 4.100350 -22.190454 71.260713
RightForeArm -41.884987 -0.000000 62.519251
RightHand -8.081057 0.000000 -17.125469
RightHandThumb1 -24.326973 -0.000000 -32.862282
LeftUpLeg 4.193247 9.127199 25.300404
LeftLeg 148.282918 -0.000000 -0.000000
LeftFoot 48.355787 10.803951 23.961451
LeftToeBase 24.337671 -0.000000 -0.000000
RightUpLeg -111.167996 -25.724732 35.281491
RightLeg 134.375290 -0.000000 -0.000000
RightFoot 26.882250 -19.015225 18.609863
RightToeBase 41.500186 -0.000000 -0.000000
